0
SECTION
2
ENTITIES
0
LINE
8
0
10
0
20
20
30
0
11
120
21
20
31
0
0
LINE
8
0
10
0
20
16
30
0
11
120
21
16
31
0
0
TEXT
8
0
10
45
20
22
30
0
40
2.5
1
Water Pipe
0
LINE
8
0
10
40
20
10
30
0
11
50
21
10
31
0
0
LINE
8
0
10
50
20
10
30
0
11
50
21
16
31
0
0
LINE
8
0
10
50
20
16
30
0
11
40
21
16
31
0
0
LINE
8
0
10
40
20
16
30
0
11
40
21
10
31
0
0
TEXT
8
0
10
40
20
8
30
0
40
2.5
1
Leak Sensor
0
LINE
8
0
10
70
20
5
30
0
11
95
21
5
31
0
0
LINE
8
0
10
95
20
5
30
0
11
95
21
20
31
0
0
LINE
8
0
10
95
20
20
30
0
11
70
21
20
31
0
0
LINE
8
0
10
70
20
20
30
0
11
70
21
5
31
0
0
TEXT
8
0
10
72
20
22
30
0
40
2.5
1
Control Unit
0
TEXT
8
0
10
72
20
19
30
0
40
2.5
1
ESP8266 / ESP32
0
LINE
8
0
10
110
20
5
30
0
11
135
21
5
31
0
0
LINE
8
0
10
135
20
5
30
0
11
135
21
20
31
0
0
LINE
8
0
10
135
20
20
30
0
11
110
21
20
31
0
0
LINE
8
0
10
110
20
20
30
0
11
110
21
5
31
0
0
TEXT
8
0
10
112
20
22
30
0
40
2.5
1
User Phone
0
TEXT
8
0
10
112
20
19
30
0
40
2.5
1
Telegram Alert
0
LINE
8
0
10
50
20
13
30
0
11
70
21
13
31
0
0
LINE
8
0
10
95
20
13
30
0
11
110
21
13
31
0
0
TEXT
8
0
10
52
20
15
30
0
40
2.5
1
Signal
0
TEXT
8
0
10
97
20
15
30
0
40
2.5
1
WiFi
0
ENDSEC
0
EOF